<?xml version="1.0" encoding="utf-8"?>
<!-- Generator: Adobe Illustrator 22.0.1, SVG Export Plug-In . SVG Version: 6.00 Build 0)  -->
<svg version="1.1" id="圖層_1" xmlns="http://www.w3.org/2000/svg" xmlns:xlink="http://www.w3.org/1999/xlink" x="0px" y="0px"
	 viewBox="0 0 1366 768" style="enable-background:new 0 0 1366 768;" xml:space="preserve">
<style type="text/css">
	.st0{fill:#FFFFFF;}
</style>
<g>
	<g>
		<g>
			<path class="st0" d="M615.9,406.1h0.7v5.1h1.9v0.6h-2.6V406.1z"/>
			<path class="st0" d="M629.7,406.1l1.9,5.8h-0.8l-0.4-1.5h-2.2l-0.5,1.5h-0.7l1.9-5.8H629.7z M630.1,409.8l-0.9-2.9l0,0l-0.9,2.9
				H630.1z"/>
			<path class="st0" d="M642.5,406.1c1.3,0,2.1,1.1,2.1,2.9c0,2-0.8,3-2.2,3c-1.3,0-2.1-1.1-2.1-2.9
				C640.3,407.1,641.1,406.1,642.5,406.1z M642.4,411.4c0.8,0,1.4-0.6,1.4-2.4c0-1.2-0.3-2.3-1.3-2.3c-0.8,0-1.4,0.6-1.4,2.4
				C641.1,410.2,641.4,411.4,642.4,411.4z"/>
			<path class="st0" d="M665.3,408.8l-1.5-2.7h0.9l1.2,2.1l1.2-2.1h0.8l-1.6,2.7l1.7,3H667l-1.4-2.4l-1.3,2.4h-0.8L665.3,408.8z"/>
			<path class="st0" d="M676.9,406.1h0.7v5.8h-0.7V406.1z"/>
			<path class="st0" d="M687.1,406.1h2.7v0.6h-2v1.9h1.9v0.6h-1.9v2h2.1v0.6h-2.8V406.1z"/>
			<path class="st0" d="M709.1,411.2l2.3-4.5h-2.3v-0.6h3.2v0.6l-2.4,4.5h2.5v0.6h-3.3V411.2z"/>
			<path class="st0" d="M721.6,406.1h0.7v2.5h2v-2.5h0.8v5.8h-0.8v-2.7h-2v2.7h-0.7V406.1z"/>
			<path class="st0" d="M734.6,406.1h2.7v0.6h-1.9v1.9h1.9v0.6h-1.9v2h2v0.6h-2.8V406.1z"/>
			<path class="st0" d="M746.7,406.1h0.9l2.2,4.8h0v-4.8h0.7v5.8h-0.9l-2.2-4.7h0v4.7h-0.7V406.1z"/>
		</g>
	</g>
	<g>
		<g>
			<path class="st0" d="M676.1,369c-0.1-0.1-0.4-0.1-0.7-0.1c-0.8,0-2,0.2-2.2,0.3c-0.1,0-0.9-0.2-1.6-0.2c-0.2,0-0.4,0-0.5,0
				c-0.1,0.1-0.2,0.1-0.3,0.1c-0.2,0-0.2-0.1-0.2-0.4c0,0,0-0.1,0-0.2c0-0.3,0-0.7,0.1-1.1c0.1-0.3,0.1-0.6,0.1-0.8
				c0-0.5,0.1-1.8,0.6-3.5c0.5-1.7,0.8-2.9-0.8-4.1c-1.1-0.9-2.2-1.2-2.8-1.2c-0.1,0-0.3,0-0.5,0.1c0,0,0,0,0,0c0,0-0.4,0.3-0.9,0.4
				c-0.2,0-0.6,0.1-0.6,0.4c-0.1,0-0.2,0.2-0.2,0.4c-0.1,0.1-0.4,0.3-0.4,0.8l-0.2,0.4c0,0-0.1,0.1-0.1,0.2c-0.1,0.2-0.1,0.3,0,0.5
				c-0.1,0.2-0.2,0.7,0,1c0,0,0.1,0.2,0,0.4c0,0,0,0,0,0.1v0.5c-0.1,0.1-0.2,0.4-0.1,0.5c0,0.1,0.1,0.1,0.2,0.1
				c0.1,0,0.2,0.3,0.2,0.4c0,0.1-0.1,0.2-0.1,0.2c0,0-0.1,0.1-0.1,0.1l-0.1,1c0,0.1,0,0.1,0,0.1c0.2,0.1,0.4,0.3,0.4,0.5
				c0,0.2-0.1,0.5-0.1,0.6c-0.1,0.1-0.1,0.2-0.1,0.3c0.1,0.2,0.2,0.4,0.4,0.5c0.1,0,0,0.3-0.1,0.5c0,0.2-0.1,0.3-0.1,0.4
				c0,0.3-0.2,0.8-0.4,0.8c-0.1,0-0.2-0.1-0.4-0.1c-0.1-0.1-0.3-0.1-0.4-0.1c-0.2,0-0.4-0.1-0.5-0.2c0,0,0,0,0,0h-0.7
				c-0.3,0-0.7,0-0.8,0.4c-0.2,0.3-0.3,0.8-0.3,0.9c-0.1,0.1-0.4,0.3-0.5,0.7c0,0.1,0,0.1-0.1,0.1c-0.2,0-0.3,0.1-0.5,0.5
				c-0.1,0.1-0.6,0.5-0.6,0.9v0.1c0,0.6,0,1.8,0.5,2.4c0.5,0.6,0.8,0.8,1.2,0.9c0.2,0,0.5,0.1,0.7,0.1c0.3,0,1-0.1,1.3-0.3
				c0.1-0.1,0.3-0.2,0.4-0.1c0.2,0,1.2,0.3,1.5,0.4c0,0.4,0,1.7,0.2,2c0.2,0.3,0,0.7,0,1c0,0.1-0.1,0.1-0.1,0.2c0,0.1,0,0.3,0,0.5
				c-0.1,0.3-0.1,0.7-0.2,0.9c-0.2,0.5-0.6,1.8-0.5,3c0,0.5,0.1,1.4,0.1,2.2c0.1,1.1,0.1,2.1,0.1,2.4c0,0.6-0.5,3.9-0.6,4.5
				c0,0-0.2,0.7-0.2,1.2c0,0.2-0.1,0.5-0.1,0.8c-0.1,0.2-0.1,0.4-0.1,0.5c0,0.2,0.2,0.6,0.3,0.7c-0.1,0.2-0.2,1.2,0.3,1.3
				c0.3,0.1,0.1,1.1,0,1.4c0,0.2,0,0.3,0,0.3c0,0.2,0.7,2,1.8,2.2c0,0,0.8,0.3,1.2,0.3c0.4,0,1.8-0.1,2.4-1.2c0.2-0.1,1-0.6,0.8-1.1
				c-0.1-0.2,0.1-0.4,0.4-0.6c0.1,0,0.1-0.1,0.1-0.1c0.3-0.2,0.4-2,0.3-2.3c0,0,0,0,0,0c0,0-0.3-0.3-0.2-0.8l0-0.1
				c0.1-0.5,0.2-0.8-0.5-1c-0.1,0-0.5-0.3-0.5-1c0-0.9,0.1-6.8,0.4-7.5c0.3-0.7,0.3-3-0.4-3.8c-0.5-0.5-0.3-3.1-0.2-4.1l0.1-1.7
				c0,0,0-0.9,0.6-1.1c0.2,0,0.4-0.1,0.8-0.1c0.2,0,0.5,0,0.8,0c0.2,0,0.5,0,0.7,0c0.2,0,0.4,0,0.5,0c0.6-0.1,2.2-1.3,2.2-2.1
				c0-0.1,0-0.4,0.1-0.6C676.4,370.5,676.5,369.3,676.1,369z"/>
			<path class="st0" d="M700.1,368.6c-1-0.3-3.3-1.6-3.4-2c0,0,0.2-1.1,1.6-2.5c0,0,0.7-0.7,0.7-1.7c0-0.4-0.5-0.7-0.9-0.9
				c-0.6-0.4-1.5-1.2-1.7-1.5c-0.1-0.2-0.3-0.4-0.5-0.4c-0.3,0-0.4,0.3-0.5,0.5c-0.1,0.1-0.4,0.4-0.4,0.6c-0.1,0.5-0.3,1-0.4,1
				c-0.2,0.2-0.9,1-1,1.1c0,0,0,0,0,0c-0.1,0.2-0.4,0.6-0.6,0.6c-0.2,0-0.3-0.1-0.6-0.2c-0.2-0.1-0.5-0.2-0.8-0.2
				c-0.3,0-0.4-0.1-0.5-0.2c-0.1,0-0.2-0.1-0.4-0.1c0,0-0.2,0-0.3,0c-0.2,0-0.4,0.1-0.7,0.1c-0.2,0-0.4,0-0.4-0.1
				c-0.3,0-1.3-0.1-1.5-0.1c-0.1,0-0.8-0.1-1.4-0.1c-0.4,0-0.6,0.1-0.8,0.2c-0.4,0-0.6,0.2-0.6,0.3c0,0.1-0.1,0.3,0.2,0.4
				c0.3,0.2,0.3,0.2,0.1,0.6c-0.1,0.1-1,1.5-0.9,2c0.1,0.2,0.5,1.1,0.9,1.2c0.1,0.1,0.5,0.1,0.8,0.1c0.2,0.1,0.4,0.1,0.6,0.1
				c0.1,0,0.3,0.2,0.4,0.3c0,0.1,0.1,0.1,0.1,0.1c0.1,0.1,0.2,0.1,0.3,0.2c-0.4,0.3-1.6,0.9-1.9,1c-0.3,0.1-1.4,0.9-1.7,1.5
				c-0.3,0.3-0.6,0.3-0.6,0.3c0,0-0.1,0-0.1,0c-0.4,0.1-0.9,0.3-0.9,0.6c-0.1,0.2-0.7,0.9-1.1,1.4c-0.2,0.2-0.6,0.7-0.5,1.1
				c0,0.1,0.1,0.2,0.2,0.3c0.1,0.1,0.3,0.1,0.4,0.2c0.1,0,0.1,0,0.2,0c0,0.1,0,0.1,0,0.1c0,0.2,0.1,0.6,0.4,0.7
				c0.1,0.1,0.5,0.3,0.8,0.6c0,0,0,0,0.1,0c0.1,0,0.9,0.3,1.4,0.3c0.1,0,0.3,0,0.5,0.1c0.3,0,0.6,0,0.9,0c0.4,0,0.7-0.1,0.8-0.2
				c0.4-0.3,0.6-1,0.7-1.1c0.1-0.2,0.2-0.6,0.4-0.6c0-0.1,0.1-0.1,0.2-0.1c0.6-0.2,1.5-0.7,2.3-1.4c0.3-0.2,0.5-0.5,0.7-0.7
				c0.5-0.5,1-1,1.2-1c0,0,0.2,0,0.2,0c0.3,0,0.7,0,1.1,0c0.3,0,1,0,1.3-0.1c-0.1,0.2-0.2,0.3-0.4,0.5c-0.5,0.6-0.8,1-0.8,1.3
				c0,0.2-0.4,1-0.6,1.1c-0.2,0.2-0.2,0.6-0.2,1.2c0,0.1,0,0.2,0,0.3c0,0.3,0.3,0.6,0.6,0.7c0.1,0.1,0.2,0.1,0.3,0.2
				c0.2,0.2,0.6,0.5,1,0.5c0.1,0,0.3,0,0.4-0.1c0.1,0,0.2,0.1,0.4,0.1c0.3,0,0.8-0.1,1.1-0.9c0.1-0.4,0.5-0.9,0.7-0.9
				c0.2,0,0.3,0,0.5,0c0.3,0.1,0.5,0.1,0.7-0.1c0,0,2-1.1,2.2-1.7c0-0.1,0.1-0.3,0.1-0.4c0.1-0.4,0.2-0.8,0.2-1.1
				c0-0.3,0.1-1.3,0.1-1.3C700.9,370.3,701,368.9,700.1,368.6z"/>
			<path class="st0" d="M692.3,385.7c0-0.1-0.2-0.3-0.5-0.3c-0.1-0.1-0.6-0.3-1-0.2c-0.4,0-0.8,0.1-0.9,0.2c-0.2,0-0.9-0.1-1.4,0.2
				c-0.2,0.1-0.3,0.1-0.4,0.1c-0.2,0-0.3-0.1-0.3-0.1c-0.5-0.2-0.9-0.5-0.9-0.6c-0.1-0.1-0.2-0.5-0.2-0.9c0-0.3-0.1-1-0.1-1.1
				c0,0,0-0.1,0-0.1c0-0.1,0-0.1,0.1-0.1c0.3-0.1,0.7-0.3,0.8-0.4c0,0,0.1,0,0.1-0.1l0.3-0.5c0-0.1,0-0.1,0-0.1c0-0.2,0-1.5-0.7-1.7
				c-0.1,0-0.3-0.1-0.6-0.1c-0.3,0-0.6,0-0.7,0c-0.1,0-0.2-0.1-0.5-0.1c-0.4,0-0.8,0.2-1.2,0.6c-0.1,0-0.1,0-0.2,0
				c-0.8,0-1.4,0.4-1.6,1.1c0,0,0,0.1,0,0.1c0,0,0,0.1,0,0.1c-0.1,0-0.2,0.1-0.3,0.1l0,0c0,0,0,0-0.1,0c-0.4-0.1-1.1-0.5-1.2-0.6
				c-0.2-0.2-0.6-0.4-0.7-0.4c-0.1-0.1-0.4-0.2-0.7-0.2c-0.2,0-0.4,0.1-0.6,0.2c-0.1-0.1-0.3-0.1-0.4-0.1c-0.3,0-0.5,0.2-0.7,0.4
				c-0.1,0.1-0.3,0.3-0.4,0.6c0,0.1,0,0.3,0.1,0.4c-0.1,0.2-0.2,0.7,0,1c0,0.3,0.1,1.1,0.5,1.3c0.1,0.1,0.2,0.2,0.4,0.3
				c0.2,0.2,0.6,0.6,1,0.8c-0.4,0.5-1.3,1.6-2.5,2.7c-1,0.3-1.6,0.7-1.6,1c0,0.1-0.3,0.4-0.5,0.6c-0.1,0-0.4,0.1-0.7,0.1
				c-0.5,0-0.8,0.1-0.9,0.4c-0.1,0.1-0.1,0.3,0,0.6c0.2,0.3,0.4,0.4,0.5,0.5c0.1,0.1,0.2,0.2,0.3,0.3c0.3,0.4,0.8,0.8,1.2,0.9
				c0.2,0.1,1.6,0.2,1.9,0.2c0.1,0,0.5,0,0.8,0.1c0.3,0,0.6,0.1,0.7,0.1c0.3,0,1.4-0.7,1.5-1.1c0-0.1,0.5-0.5,0.7-0.7
				c0.1-0.1,0.2-0.2,0.3-0.2c0.2-0.2,0.5-0.7,0.5-1.1c0.1-0.1,0.3-0.2,0.5-0.6c0.5-0.7,1.5-1.5,2.5-1.6c0,0,0.1,0,0.1,0
				c0,0,0.3-0.1,0.6-0.2c0,0,0,0,0.1,0c0.1,0,0.3,0,0.3,0.1c0.1,0,0.1,0,0.1,0c0,0,0.1,0,0.2,0c0.1,0,0.2,0,0.3,0
				c0,0.1-0.1,0.1-0.1,0.2c-0.1,0.3-0.5,0.6-0.6,0.7c-0.3,0.1-1.4,1.8-1.5,1.8c-0.3,0.4-0.7,1.4-0.7,1.8c0,0.1-0.1,0.3-0.2,0.5
				c-0.1,0.3-0.3,0.6-0.3,0.8c0,0,0,0.2-0.1,0.3c-0.1,0.5-0.2,1.3,0.3,1.7c0.1,0,0.1,0.1,0.2,0.1c0,0,0.3,0,0.7,0.1
				c0.2,0.1,0.4,0.2,0.6,0.2c0.3,0.1,0.5,0.2,0.7,0.2c0.4,0,0.8-0.3,0.8-0.4c0,0,0,0,0,0l0.4-0.6c0,0,0.4-0.4,0.5-0.6
				c0.2-0.2,0.5-1,0.7-1.5c0.1-0.2,0.8-1.2,0.9-1.5c0.1-0.2,0.2-0.3,0.3-0.4c0.2-0.2,0.3-0.4,0.3-0.5c0.1,0,0.2,0,0.3,0
				c0.2,0,0.3,0,0.4,0.1c0.1,0.1,0.3,0.2,0.5,0.2c0.4,0,1-0.4,1.3-1.4c0.2-0.2,0.8-0.8,0.8-1.9C692.2,386.8,692.6,386.1,692.3,385.7
				z"/>
			<path class="st0" d="M707.1,387.6c-0.1-0.1-0.4-0.4-0.8-0.4c-0.2,0-0.3,0.1-0.4,0.2c-0.2,0-0.4,0.1-0.6,0.1c0,0,0,0,0,0
				c-0.1,0-0.2-0.1-0.3-0.2c-0.2-0.1-0.3-0.2-0.5-0.2l0,0c-0.1,0-0.2-0.1-0.3-0.1c-0.2-0.1-0.4-0.2-0.6-0.2
				c-0.2-0.1-1.2-0.5-1.5-0.7c0,0,0,0-0.1,0c0,0,0-0.1,0.1-0.1c0.1-0.2,0.2-0.5,0.5-1c0.2-0.5,0.5-1.1,0.7-1.4
				c0.3-0.4,0.5-0.7,0.6-0.8c0.1-0.1,0.2-0.2,0.3-0.3c0.2-0.3,0.7-1.8,0.1-3.1c0,0,0,0,0,0c0-0.1,0-0.1,0-0.2
				c0.1-0.1,0.1-0.2,0.1-0.4c-0.1-0.3-0.5-0.6-0.7-0.7c-0.1-0.1-0.5-0.4-1.3-0.4c-0.2,0-0.3,0-0.5,0c0,0-0.1,0-0.1,0
				c-0.3,0.2-0.9,0.5-1.1,0.6c0,0-1.2,0.3-1.3,0.8c0,0.1-0.2,0.5-0.3,0.7c-0.1,0.3-0.2,0.5-0.2,0.6c0,0.1-0.1,0.4-0.2,0.7
				c-0.5,1.4-0.6,1.9-0.6,2.1c0,0.1-0.1,0.2-0.1,0.2c-0.3,0-1,0-1.2,0.1c-0.2,0-1.1-0.1-1.2-0.1h-0.1c0,0-0.1,0-0.1,0
				c-0.9,0-1,0.4-1,0.7c0,0.1,0,0.3-0.1,0.4c-0.1,0.2-0.2,0.6,0.1,0.8c0.1,0.1,0.1,0.1,0.1,0.1c0,0,0,0.1-0.1,0.3
				c-0.3,0.5-0.2,1.1,0,1.3c0.1,0.2,0.5,0.5,1,0.5c0.2,0,0.4,0,0.5-0.1c0,0,0.1-0.1,0.1-0.1c0.1,0.1,0.1,0.1,0.2,0.1
				c0,0.1,0,0.2-0.1,0.2c-0.1,0.1-0.1,0.1-0.1,0.2c0,0,0.1,0.3-0.2,0.7c-0.3,0.4-1.2,1.2-1.4,1.4c-0.2,0.1-0.6,0.3-1.1,0.9
				c-0.2,0.2-0.3,0.4-0.4,0.5c-0.1,0.2-0.3,0.4-0.3,0.4c-0.3,0.1-0.6,0.5-0.8,0.7c-0.1,0.1-0.6,0.5-0.6,1.1l-0.4,0.9
				c-0.1,0.1-0.2,0.2-0.3,0.5c0,0.1,0,0.3,0.1,0.5c0,0.2,0,0.6,0.3,0.9c0.4,0.4,0.6,0.4,0.9,0.6l0.1,0c0.4,0.1,0.5,0.2,0.8,0.2
				l0.1,0c0.1,0,0.1,0.1,0.2,0.1c0.2,0.1,0.5,0.1,0.7,0.1c0.1,0,0.2,0,0.3,0c0.4-0.1,0.7-0.2,1-0.5l0.1-0.1c0.2-0.2,0.5-0.5,0.7-0.9
				c0.1-0.2,0.2-0.4,0.3-0.5c0,0,0.1-0.1,0.2-0.1c0.4-0.2,1-0.6,1.1-1.1c0.1-0.6,0.8-2,1-2.1c0.4-0.2,1.2-0.9,1.4-1.2
				c0.2-0.2,0.5-1,0.7-1.3c0,0,0,0,0.1,0c0.3,0,0.4,0.1,0.4,0.2c0,0.1-0.1,0.4-0.2,0.6c-0.3,0.3-0.7,1.5-0.8,1.7
				c-0.3,0.8-0.8,1.7-0.9,1.8c-0.4,0.3-1,0.8-0.8,1.4c0,0.2,0,0.6,0.5,1c0,0,0.1,0.1,0.1,0.1c0.5,0.1,1.3,0.2,1.5,0.2
				c0.1,0,0.1,0.1,0.2,0.1c0.5,0,1.6-0.5,1.8-1.2c0.2-0.6,1.3-2.9,1.5-3.1c0.1-0.1,0.3-0.2,0.4-0.2c0.1,0,0.2,0,0.3-0.1
				c0.1,0,0.1-0.1,0.2-0.1c0.3-0.1,0.6-0.3,0.8-0.5c0.1-0.2,0.4-0.4,0.4-0.4c0,0,0.1-0.1,0.1-0.2c0-0.2,0.1-0.5,0.2-0.5
				c0.1-0.1,0.4-0.5,0.8-1.2c0.1-0.1,0.4-0.4,0.4-0.7C707.6,388,707.4,387.8,707.1,387.6z"/>
		</g>
		<g>
			<path class="st0" d="M729.1,393.6c0,0-0.4-0.8-0.8-1c-0.4-0.2-0.6-0.3-0.7-0.4c-0.2-0.1-0.1-0.2-0.5-0.3
				c-0.4-0.1-1.1-0.1-1.3,0.1c-0.2,0.1-0.6,0-0.9-0.1c-0.3-0.1-0.5-0.1-0.6,0c-0.1,0.1-0.3,0.6-0.4-0.4c-0.1-1-0.3-2.9-0.5-3.2
				c-0.3-0.3,0.1-2,0.2-2.3c0.1-0.4,0.4-2.6,0.3-3.2c-0.2-0.5,0.3-1.9,0.2-3.4c0,0,1.4-0.7,1.7-1.1c0,0,0.5,0,0.8-0.5
				c0.2-0.6,0-0.5-0.5-0.9c-0.5-0.4-0.5-0.7-1.1-0.9c-0.6-0.2-0.1-0.3-0.9-0.4c0,0-0.2,0.1-0.2-0.9c0-1,0.1-4.9-0.2-5.8
				c-0.3-0.9-0.6-1.7-0.6-1.9c0-0.3-0.3-0.5-0.2-0.5c0.1-0.1,0.8-0.2,1.2-0.3c0.3-0.1,0.7-0.2,0.7-0.2s0.4,0.1,0.7-0.3
				c0,0,0.4-0.2,0.7-0.2c0.2,0,0.7-0.1,0.8-0.7c0.1-0.6,0.3-1.2,0.2-1.3c-0.2-0.1-1,0.1-1.2,0.2c-0.2,0-1.2,0.1-1.5,0.1
				c-0.3,0-0.4,0.3-0.6,0.3c-0.2,0-0.5-0.1-0.8,0c-0.2,0.1-1,0-1.6-0.1c-0.6-0.1-1.4-0.2-2.2-0.9c0,0-0.5-0.4-0.8-0.3
				c0,0-0.1,0-0.2,0c-0.1,0-0.3,0-0.4,0.2c-0.1,0.2-0.3,0.3-0.5,0.3c-0.2,0-0.4,0-0.4,0.1c0,0.1,0,0.1-0.1,0.1c-0.1,0-0.1,0-0.1,0.1
				c-0.1,0.1-0.2,0.1-0.2,0.1c0,0.1-0.1,0.1-0.1,0.1c0,0.1,0,0.2-0.1,0.2c-0.1,0.1-0.4,0.1-0.4,0.1c0,0-0.1,0-0.1,0
				c-0.1,0-0.1,0.1-0.2,0.1c0,0-0.1,0.3-0.1,0.3c0,0.1-0.1,0.5,0,0.7c0.1,0.1,0.1,0.2,0,0.3c0,0.2,0,0.4,0,0.5
				c0.1,0.1,0.1,0.2,0.1,0.3c0,0.1,0.1,0.3,0.2,0.4c0,0.1,0.2,0.3,0.2,0.4c0.1,0.1,0.3,0.2,0.3,0.2c0.1,0,0.3,0.2,0.3,0.2
				c0.1,0,0.4,0.1,0.5,0.1c0.1,0,0.4,0,0.5,0c0.1-0.1,0.2-0.1,0.2-0.1c0.1-0.1,0.1-0.2,0.2-0.2c0.1-0.1,0.1-0.3,0.2-0.3
				c0.1,0,0.3-0.2,0.8-0.2c0.5,0.1,0.6,0.2,0.4,0.3c-0.2,0.1-0.8,0.4-0.8,0.9c0,0.4,0.1,0.6,0.1,1c0,0-0.1,0.2,0,0.4
				c0.1,0.3,0.1,0.5,0.1,0.6c0,0.1-0.1,0.3-0.1,0.4c0,0,0.1,1.6,0.1,1.7c0,0.1-0.1,0.6,0.1,0.8c0.2,0.2,0,1.1,0,1.3
				c0,0.1-0.1,1.4-0.1,1.4s-0.4,0-0.5,0.2c-0.1,0.2-0.3,0.1-0.4,0.1c-0.1,0-0.3,0-0.3,0.1c0,0.1,0,0.3-0.2,0.3
				c-0.2,0-0.5-0.1-0.5-0.1c-0.1,0.1-0.1,0.2-0.2,0.2c0,0-0.1,0.1-0.3,0.1c0,0-1.2,0.2-1.6,0.5c0,0-0.5,0.1-0.5,0.3
				c0,0.2,0,0.5-0.2,0.6c-0.2,0.1-0.3,0.6-0.2,0.9c0.1,0.2,0.4,1.6,0.4,1.8c0.1,0.1,0,0.4,0.4,0.4c0,0,0.5,0.3,0.7,0.5
				c0.2,0.2,1.1,0.3,1.1,0.3s0.5,0.5,0.9,0.4c0.4-0.1,0.6-0.3,1-0.3c0,0,0.3-0.1,0.5-0.2c0,0,0.4-0.2,0.5,0.1c0.1,0.3,0.2,0.9,0.1,1
				c-0.1,0.2-0.1,0.9-0.1,1.3c0,0.4-0.4,1.9-0.3,2.8c0.2,0.9,0.3,1.2,0.3,1.4c0,0.2,0.1,0.6,0.2,0.7c0.1,0.2,0.2,0.5,0,1
				c-0.2,0.5-0.1,0.8-0.2,0.8c-0.1,0-0.1,0.9-0.4,1.1c-0.3,0.1-0.7,0.2-0.7,0.5c0,0.3-1.5,0.2-1.5,0.2s-0.2,0-0.5,0.1
				c-0.2,0.1-0.6,0.3-0.5,0.5c0.1,0.2,0.1,0.3-0.1,0.5c-0.1,0.2,0,0.6,0,0.9c0,0.3,0,0.8-0.1,1c-0.1,0.2,0,0.8,0.7,1.2
				c0,0,0.4,0.5,0.7,0.5c0.3,0.1,0.9,0.2,1.4-0.1c0.6-0.2,1.2-1.1,1.7-1.2c0.5-0.2,1.4-0.4,2.3,0c0,0,0.6,0.1,0.8,0.1
				c0.2,0,0.5,0.4,0.9,0.4c0.4,0,0.9-0.1,1.1-0.1c0.3,0,0.7-0.3,0.9-0.4c0.2-0.1,2.2-0.6,2.4-0.8c0.2-0.1,0.8-0.1,1.1-0.6
				C729.7,394,729.1,393.6,729.1,393.6z"/>
			<path class="st0" d="M762.8,373.4c-0.3-0.1-1.1-0.1-1.3-0.3c-0.1-0.2-0.4-0.5-0.6-0.7c-0.2-0.2-0.9-0.5-1.4-0.7
				c-0.5-0.2-1.2-0.9-1.6-1c-0.4-0.1-1.5-1.2-1.9-1.4c-0.3-0.2-1.1-0.2-1.6,0c-0.6,0.1-1.1-0.1-1.4-0.2c-0.3,0-1.3-0.3-1.6-0.5
				c-0.3-0.3-0.5-0.4-0.6-0.3c-0.2,0.1-0.4,0.5-0.6,0.1c-0.3-0.3-0.4-0.2-0.6-0.3c-0.2-0.1-0.9-0.8-1.1-0.9c-0.2-0.2-1-0.4-1-0.4
				s-0.1-0.3-0.8-0.2c-0.7,0.1-0.2-0.4-0.1-0.7c0.2-0.3,1.2-1.1,1.5-1.6c0.2-0.4,0.2-0.6-0.1-1c-0.2-0.3-0.3-0.8-0.6-0.9
				c-0.3-0.1-0.4-0.2-0.6-0.3c-0.2-0.2-0.9-0.2-1.3-0.1c-0.4,0.1-1.1,0.6-1.3,0.7c-0.2,0.2-1.2,0.3-1.4,0.4
				c-0.2,0.1-0.4,0.2-0.4,0.3c-0.1,0.1-0.4,0.3-0.6,0.3c-0.2,0-0.4,0.1-0.2,0.2c0.2,0,0.4,0.2,0.2,0.3c-0.3,0.1-0.6,0.2-0.5,0.2
				c0.1,0,0.5-0.1,0.6-0.1c0.1,0,0.5,0.1,0.1,0.3c-0.4,0.2-0.6,0.5-0.7,0.5c-0.2,0-0.9,0.3-1.1,0.4c-0.2,0.1-1,0.2-1.1,0.2
				c-0.2,0-0.3,0.2-0.5,0.3c-0.1,0.1-0.3-0.1-0.5,0.1c-0.2,0.2-0.6,0.3-0.8,0.5c-0.2,0.2-0.4,0.1-0.6,0.1c-0.2-0.1-0.3-0.1-0.3,0.1
				c0,0.2-0.3,0.7-0.5,0.7c-0.2,0-0.5-0.2-0.8-0.1c-0.3,0.1-1.1,0.4-1.4,0.2c-0.3-0.1-0.5-0.2-0.8-0.2c-0.3,0-0.9,0.3-1,0
				c0,0-0.2-0.4-0.4-0.4c-0.2,0-0.4-0.1-0.5-0.1c-0.1,0-0.1,0.7,0.2,0.9c0,0,0,0.4,0.3,0.6c0,0-0.1,1.2,0.5,1.4c0,0,0.2,1.6,0.6,1.8
				c0,0,0.2,0.6,0.6,0.5c0,0,0.1,0.5,0.6,0.4c0,0,0.2,0.3,0.5,0.3c0.3,0,0.3-0.1,0.5-0.1c0.2,0,0.4,0.5,0.8,0.5
				c0.3,0,1.4,0.1,1.8-0.7c0,0,0.7-0.3,1.1-1c0,0,0.4,0,0.7-0.6c0,0,0.5-0.3,0.8-0.7l0.6-0.6c0,0,1.5-0.7,1.8-0.9
				c0.3-0.2,1-0.2,1.2-0.2c0.1,0,0.6-0.1,0.6,0.5c0,0.5,0.5,0.8,0.5,0.8l1.2,1.4c0,0,0.6,0.6,0.9,0.6c0.2,0,0.4,0.1,0.5,0.3
				c0.1,0.2,0.5,0.4,0.5,0.4s0.8,0.9,0.9,1.3c0.2,0.4,0.7,1,0.9,1.2c0.1,0.1,0.9,0.5,1,0.7c0.1,0.2,0.4,0.3,0.6,0.4
				c0.2,0.1,1.1,0.4,1.4,0.5c0.3,0.1,0.7,0.2,0.7,0.2s1,0.2,1.2,0.2c0.2,0,1.2,0.2,1.5,0.2c0.3,0.1,0.7-0.1,0.8,0
				c0.1,0,1,0.1,1.3-0.1c0.3-0.1,0.7-0.5,0.9-0.5c0.2,0,0.6,0.4,1.1,0c0.5-0.3,1.3-0.9,1.4-1.1c0.2-0.2,0.2-0.5,0.3-0.6
				c0.1-0.1,0.1-0.9,0.7-0.9C763.2,373.8,763.1,373.5,762.8,373.4z M738.5,366.9c-0.2,0.2-0.5,0.4-0.6,0.2c-0.1-0.2,0-0.3,0.1-0.3
				c0.2,0,0.4-0.3,0.5-0.3C738.6,366.5,738.7,366.6,738.5,366.9z M740.4,366.1c-0.1,0,0.1,0.2,0,0.3c-0.1,0.1-0.5,0.1-0.5,0
				c-0.1-0.1-0.3-0.1-0.4,0c-0.1,0-0.2,0.1-0.2,0.3c0,0.1-0.2,0.1-0.3,0.1c-0.1,0-0.2-0.2,0-0.3c0.2-0.1,0.1-0.1,0.2-0.3
				c0-0.1,0.3-0.2,0.4-0.2c0.2,0,0.5-0.3,1-0.3C741,365.8,740.4,366.1,740.4,366.1z"/>
			<path class="st0" d="M740.2,364.9c0.4-0.1,0.8-0.2,0.6-0.3c0,0-0.3,0-0.5,0.1C740.1,364.8,739.9,365,740.2,364.9z"/>
			<path class="st0" d="M739.7,365c0,0-0.6,0-0.6,0.2C739.2,365.4,740,365.1,739.7,365z"/>
			<path class="st0" d="M738.4,365.6c0,0,0.1-0.2-0.1-0.2c-0.2,0.1-0.3,0.2-0.4,0.2C737.7,365.7,737.4,366,738.4,365.6z"/>
			<path class="st0" d="M741,378c-0.2,0.1-0.3,0.4-0.3,0.6c0,0.2-0.1,0.6-0.3,0.6c-0.2,0.1-0.5,0.2-0.6,0.3
				c-0.2,0.2-0.4,0.7-0.4,0.7s-0.1,0.7,0.1,0.8c0.2,0.1,0.2,0.7,0.2,0.7s-0.4,0.7,0.3,0.3c0,0,0.7,0.4,1.1,0.4
				c0.3-0.1,0.8-0.2,1-0.3c0.2-0.1,1.2-0.6,1.5-0.7c0.3-0.1,1.2-0.2,1.4-0.4c0.2-0.1,0.7,0.1,1,0c0.3-0.1,0.6-0.5,0.8-0.6
				c0.3-0.1,1.1-0.5,1.2-1c0.1-0.5,0.4-1.3-0.3-2.3c0,0-0.1-0.4-0.6-0.6c0,0-0.5-0.3-0.9,0c-0.3,0.2-1.3,0.4-1.3,0.4
				s-1.2,0.4-1.5,0.4c-0.2,0-0.7,0.1-0.7,0.1s-0.1-0.3-0.6,0c-0.5,0.3-0.3,0.6-0.3,0.6S741.3,377.9,741,378z"/>
			<path class="st0" d="M748.3,384.3c-0.5-0.1-0.9-0.2-1.1-0.4c-0.2-0.1-0.8-0.6-1.6-0.3c0,0-0.7,0.1-1.2,0.1
				c-0.5,0-1.7-0.2-1.8,0.1c-0.1,0.2-0.1,0.5-0.1,0.7c-0.1,0.2,0.1,0.6,0.1,0.6s0.1,0.5,0,0.7c-0.1,0.1-0.3,0.5-0.3,0.5
				s-0.4,0.6-0.4,0.8c0,0.2-0.1,0.6-0.1,0.6s0.1,0.6,0.6,0.7c0.5,0.1,2.5,0.7,3,0.7c0.5,0.1,1.6,0.2,2.7-0.7
				c1.1-0.9,2.3-2.6,1.5-3.8C749.4,384.6,748.9,384.4,748.3,384.3z"/>
			<path class="st0" d="M749,393c-0.2-0.1-0.6-1.4-0.8-1.7c-0.2-0.3-0.3-0.4-0.5-0.3c-0.1,0.2-0.8,0.3-0.8,0.3
				c0-0.4-0.4-0.2-0.6-0.2s-0.4,0.2-0.8,0.3c-0.4,0-0.6,0.4-0.8,0.4c-0.2,0-0.1-0.3-0.2-0.3c-0.1,0-0.1-0.3,0-0.4
				c0.1-0.1,0.2-0.3,0-0.3c-0.2,0-0.4,0.3-0.4,0.3s0.1,0.5-0.7,0.4c-0.8-0.1-0.8,0.4-1.2,0.4c-0.3,0-0.6-0.1-0.9-0.1
				c-0.4,0-1.3,0.5-1.9,0.6c-0.5,0.1-0.2,1,0.1,1.3c0.2,0.3,1.1,1.1,1.1,1.1s0,0.4,0.1,0.5c0.1,0.2,0.4,0.5,0.6,0.8
				c0.2,0.3,0.5,0.7,0.8,0.8c0.3,0.1,0.5,0.3,0.5,0.6c0,0.3,0.2,1,0.4,1c0.1,0,0.5-0.9,0.7-1c0.2-0.1,0.5,0,0.7,0.1
				c0.2,0.1,0.8,0.3,1,0.3c0.2-0.1,0.9-0.4,1.2-0.5c0.2-0.1,0.6-0.3,0.8-0.4c0.2-0.1,0.4-0.5,0.6-0.6c0.2-0.1,0.5-0.3,0.6-0.5
				c0.1-0.2,0.1-1.3,0.4-1.5C749.2,394,749.2,393.1,749,393z"/>
		</g>
		<g>
			<path class="st0" d="M653.4,373.9c-0.2,0-0.8-0.3-0.8-0.4c-0.1-0.1-0.2-0.2-0.3-0.3c-0.2,0-1.8-0.2-2.1-0.1
				c-0.4,0.2-1.1,0.3-1.2,0.3c-0.2,0-1.2-0.2-1.4-0.1c-0.2,0-0.2,0-0.5-0.1c-0.2-0.1-2.5-0.5-2.8-0.5c-0.3,0-1.3-0.3-1.5-0.3
				c-0.1,0-1.2,0.2-1.3-0.1c0-0.1-0.6-0.2-0.6-0.2s-0.1-0.1-0.3-0.8c-0.1-0.6-0.7-0.8-0.8-0.9c-0.2-0.1-0.8-0.1-0.5-0.5
				c0,0,0,0,0.1-0.1c0.3-0.1,1.5-0.3,1.7-0.6c0.2-0.2,0.6-0.6,0.6-0.8c0-0.3,0.1-0.2,0.2-0.4c0.1-0.1,0.1-1.2,0-1.7
				c-0.2-0.5-0.7-1.1-0.8-1.2c-0.1-0.1-0.2-0.4-0.5-0.5c-0.2-0.1-0.7-0.2-0.7-0.2s-1.5,0-1.7,0c-0.1,0-0.2-0.1-0.3-0.1
				c-0.2,0-0.3,0.2-0.4,0.2c-0.2,0-0.9-0.1-1.4,0.2c-0.2,0.1-1.2,0.1-1.2,0.1s-2.3,0.2-2.6,0.1c-0.2,0-0.5,0.1-0.6,0.1
				c-0.2,0-0.5-0.2-0.7-0.2c-0.2,0-0.3-0.1-0.3-0.1s-0.3,0.1-0.1-0.4c0,0,0-0.2,0.1-0.4c0.1-0.2,0.2-0.1,0.2-0.2
				c0-0.2,0-0.7,0.1-0.9c0.1-0.1,0.6-0.7-0.1-1.2c0,0,0-0.4-0.5-0.6c-0.4-0.2-0.6-0.4-0.8-0.5c-0.3-0.1-0.7-0.3-1-0.4
				c-0.2-0.1-0.8-0.1-1.2,0.1c-0.5,0.2-0.3,0.4-0.5,0.5c-0.2,0-0.7,0.4-0.8,0.7c-0.1,0.3-0.4,0.5-0.4,0.5s-0.6,0.4-0.6,1.1
				c0,0,0,0.6,0,0.9c0,0.3-0.1,0.9-0.5,0.9c-0.4,0-0.5-0.3-0.9-0.3c-0.4-0.1-1.3,0-1.5,0c-0.3,0-0.9-0.1-1-0.2
				c-0.1,0-0.5-0.1-0.7-0.1c-0.3,0-1.1-0.2-1.3-0.3c-0.3-0.1-0.5,0.1-0.5,0.1s-0.5,0.1-0.7,0.1c-0.2,0-0.3,0-0.5,0.2
				c-0.1,0.2-0.1,0.2-0.3,0.2c-0.1,0-0.3-0.1-0.5,0c-0.2,0.1-0.6,0.2-0.8,0.3c-0.2,0-0.3,0-0.3,0.2c0,0.1,0,0.2-0.1,0.3
				c-0.1,0.1-0.2,0.2-0.3,0.4c-0.1,0.1-0.2,0.5-0.3,0.6c-0.2,0.1-0.5,0.1-0.6,0.1c-0.1,0.1-0.1,0.2-0.2,0.2
				c-0.1,0.1-0.2,0.1-0.2,0.3c0,0.2,0,0.4,0,0.4s-0.1,0.4,0.2,0.3c0.2,0,0.1,0.3,0.1,0.3s0,0.8,0.2,1c0.2,0.3,0.8,0.8,0.9,0.9
				c0.1,0.1,0.2,0.3,0.3,0.3c0.1,0,0.7,0.1,0.9,0.1c0.1,0,0.7,0.1,0.7,0c0-0.1,0.1-0.1,0.4-0.1c0.2,0,0.7-0.1,0.8,0.1
				c0.1,0.1,0.3,0.1,0.3,0.1s0.3,0,0.5,0c0.2,0,0.6,0.2,0.7,0.2c0.1-0.1,0.1-0.3,0.2-0.2c0.2,0,0.3,0.1,0.5,0.1
				c0.3,0,1.1-0.4,1.3-0.4c0.2,0,1.1,0,1.2,0c0.1,0,0.7-0.2,1-0.2c0.3,0,0.5,0.1,0.7,0.1c0.2,0,0.6-0.1,0.9,0.1
				c0.2,0.2,0.4,0.3,0.5,0.4c0,0.1,0,2.2,0,2.2s0.1,0.2-0.3,0.2c-0.4,0-1.1,0.2-1.1,0.2s-0.2,0-0.3,0.1c-0.1,0.1-0.1,0-0.2-0.1
				c0-0.1-0.4-0.1-0.5,0c-0.1,0.1-0.6,0-0.8,0c-0.2,0-1.7-0.1-1.9-0.1c-0.1,0-0.6,0.1-0.8,0.2c-0.2,0-1.1,0.1-1.3,0.1
				c-0.2,0-0.4-0.2-0.5-0.1c-0.1,0.2-0.4,0.2-0.5,0.3c-0.1,0.1-0.2,0.2-0.4,0.1c-0.2,0-0.8,0.2-0.8,0.2c0,0-0.8,0.2-1,0.1
				c-0.2-0.1-0.4-0.3-0.5-0.1c-0.2,0.1-0.5,0.3-0.8,0.1c-0.3-0.2-0.5-0.1-0.5-0.1s-0.8,0-0.9,0c-0.1-0.1-0.3-0.2-0.4-0.3
				c0-0.1-0.8-0.1-1,0.1c-0.2,0.2-0.2,0.6-0.4,0.6c-0.1,0-0.2-0.3-0.3-0.3c-0.1,0-0.5-0.1-0.7-0.1c-0.2,0-0.9,0-1,0.2
				c-0.2,0.2-0.3,0.4-0.4,0.6c0,0-0.6,0.4-0.7,0.4c-0.2,0-0.1,0.2-0.2,0.2c-0.3,0-0.3,0-0.5,0.3c-0.2,0.4-0.6,1-0.5,1.2
				c0.1,0.2-0.1,1,0,1.6c0.1,0.3,0.4,0.9,0.9,1.5c0.4,0.5,0.8,0.9,1.3,1.2c0,0,0.3,0.1,0.7-0.1c0.3-0.2,0.9-0.2,1-0.3
				c0.2,0,0.6-0.3,0.7-0.3c0.1,0,0.2,0.2,0.4,0.2c0.1-0.1,0.3-0.3,0.3-0.3s0.3-0.2,0.4-0.2c0.1-0.1,0.6-0.5,0.8-0.5
				c0.2,0,0.6,0.2,0.9,0.2c0.3,0,0.6,0,0.7-0.1c0.1,0,0.8-0.2,0.9-0.1c0.1,0.1,0.3,0.2,0.5,0.1c0.2,0,0.4-0.2,0.4,0
				c0,0.1,0.3,0.1,0.3,0.1c0.1,0,0.3-0.2,0.4-0.1c0.1,0.1,0.6,0,0.7,0c0.1,0,0.7-0.1,1,0c0.3,0.1,0.7-0.4,0.7-0.4s0.8-0.1,1-0.2
				c0.2-0.1,0.7-0.3,0.8-0.1c0.1,0.2,0.5,0.1,0.6,0.1c0.1,0,0.9-0.2,1-0.2c0.2-0.1,0.5,0,0.7,0c0.2,0,0.7-0.1,0.8-0.1
				c0.2,0,0.6,0.1,0.8,0c0.2-0.1,0.4-0.2,0.4-0.1c0.1,0.1,0.9,0,0.7,0.2c-0.1,0.2-0.6,0.5-0.7,0.5c0,0-0.7,0.4-0.8,0.5
				c-0.2,0-1.8,0.8-2.1,0.9c-0.3,0.1-1.1,0.4-1.4,0.9c0,0-0.3,0.1-0.4,0.3c-0.1,0.1-0.8,0.7-0.9,0.8c-0.1,0.1-1.1,0.9-1.4,1.1
				c-0.3,0.2-1,0.7-1.1,0.8c-0.1,0.1-0.5,0.5-0.6,0.5c-0.2,0-1.3,0.7-1.3,0.8c-0.1,0.1-1.2,0.8-1.4,0.9c-0.1,0.1-1,0.4-2.1,0.6
				c0,0-1.2,0.3-1.4,0.3c-0.3,0-0.8,0.1-1,0.1c-0.2,0-0.6,0-0.7-0.4c-0.1-0.4-0.1-0.4-0.3-0.4c-0.2,0-0.6,0-0.6-0.1
				c-0.1-0.1-0.2-0.3-0.7-0.3c0,0-0.3-0.1-0.6-0.1c-0.3,0-0.5,0.2-0.6,0.2c-0.1,0-0.4,0.2-0.5,0.3c-0.1,0-0.3,0.2-0.4,0.3
				c0,0.1-0.1,0.4-0.3,0.5c-0.1,0-0.4,0.1-0.5,0.4c0,0-0.2,0.2-0.3,0.4c-0.1,0.2-0.2,0.5-0.2,0.6c-0.1,0.1-0.6,0.9-0.8,1.1
				c-0.1,0.2-0.4,0.8-0.1,1.5c0.3,0.6,0.4,0.9,0.6,1c0.2,0.1,0.2,0.3,0.3,0.4c0.1,0.1,0.6,0.4,1,0.4c0,0,0,0.3,0.5,0.1
				c0,0,1.4,0.1,2.1-0.1c0,0,0.6-0.1,0.8-0.3c0.3-0.1,0.7-0.3,0.8-0.3c0.2,0,1.2-0.1,1.4-0.1c0.2,0,0.6,0,0.6,0.1
				c0,0.1,0.2,0.1,0.2,0.1s0.2,0.1,0.4,0.1s1.2-0.2,1.7-0.6c0.5-0.4,0.5-0.2,0.6-0.3c0.2-0.1,0.7-0.3,0.7-0.5c0-0.2,0.2-0.2,0.2-0.2
				c0.1,0,0.5-0.3,0.7-0.3c0.1-0.1,0.2-0.3,0.4-0.4c0.2,0,0.7-0.3,0.8-0.5c0.1-0.2-0.1-0.4,0.6-0.8c0,0,0.4-0.3,0.6-0.5
				c0,0,0.2-0.1,0.2-0.2c0.1-0.2,0.7-0.4,0.8-0.5c0.1-0.1,0.7-0.7,0.9-0.9c0.2-0.2,1-0.7,1.2-1c0,0,0.5-0.4,0.7-0.5
				c0.3-0.1,2.3-1.2,2.7-1.4c0.4-0.2-0.4-0.2-0.6-0.1c-0.1,0.2-0.7,0.3-0.8,0.4c-0.1,0.1-0.5,0.2-0.6,0.3c-0.2,0.1-0.4,0.3-0.5,0.1
				c-0.1-0.2,0.2-0.4,0.6-0.6c0.3-0.1,1.7-0.9,2.1-1.1c0.5-0.2,1.3-0.6,1.7-0.1c0,0,0.2,0.1,0.2,0.1c0.1,0,0.3,0.4,0.7,0.2
				c0.2-0.1,0.6-0.7,0.6-0.7s0.4-0.4,0.4-0.5c0-0.1,0.3-0.4,0.4-0.7c0.1-0.3,0.7-0.2,0.8-0.4c0.2-0.1,0.3-0.4,0.5-0.5
				c0.2-0.1,0.4-0.1,0.5-0.2c0.1-0.1,0.1-0.6,0.2-0.8c0.2-0.2,0.2-0.8,0.2-0.9c0-0.1-0.2-0.9,0.4-0.8c0.6,0.2,2.6-0.1,2.6-0.1
				s0.7,0.2,0.8,0.1c0.1-0.2,0.2-0.2,0.4-0.1c0.2,0.1,0.5,0.2,0.7,0.2c0.2,0.1,0.4,0.2,0.6,0.2c0.2,0,0.6,0.1,0.9,0.3
				c0.2,0.2,1.5,0.8,1.8,0.8c0.2,0.1,0.7,0.3,1.3,0.3c0.6,0,2.5-0.2,2.8-0.2c0.3,0,1.8-0.2,2-0.5c0.2-0.2,0.9-0.2,1.3-0.3
				c0.3-0.1,1.6-0.3,1.7-0.6c0.1-0.3,0.2-0.3,0.6-0.3c0.5-0.1,1.2,0,1.5-0.2c0.2-0.2,0.4-0.5,0.8-0.5c0.3,0.1,0.5-0.2,0.5-0.2
				s0.4-0.5,0.5-0.7c0.1-0.2,0.4-0.5,0.4-0.8c0-0.3,0.4-0.5,0.4-0.6c0-0.1-0.1-0.7,0.1-1C653.9,374,653.6,373.9,653.4,373.9z
				 M618.7,388.6c0,0.1-0.2,0.3-0.3,0.3c-0.1,0-0.4,0.3-0.5,0.4c-0.1,0.1-0.2,0.2-0.3,0.2c-0.1,0-0.2,0.6-0.5,0.5
				c-0.2,0-0.5,0.1-0.6,0.2c-0.1,0.1-0.3,0.1-0.4,0.1c-0.1-0.1,0.3-0.4,0.4-0.4c0.1,0,0.2-0.3,0.4-0.3c0.1,0,0.1-0.1,0.2-0.1
				c0.1,0,0.4-0.3,0.5-0.4c0.1-0.1,0.2-0.1,0.5-0.3c0.2-0.2,0.5-0.3,0.7-0.3C618.8,388.4,618.7,388.6,618.7,388.6z M636.7,372.1
				c-0.2,0-0.5,0.1-0.6,0.2c-0.1,0.1-0.4,0.2-0.6,0c-0.3-0.2-0.4,0-0.5,0c-0.2,0-0.4,0.1-0.5,0.2c-0.1,0.1-0.3,0.1-0.6,0.1
				c-0.3-0.1-0.7,0.1-0.8,0.1c-0.1,0.1-0.5,0-0.7,0c-0.3,0-0.9-0.1-1.1,0c-0.1,0-0.4,0-0.8,0c-0.3,0-0.4-0.5-0.4-0.5s0.1-0.5,0-0.9
				c-0.1-0.4,0.2-0.9,0.2-1c0.1-0.1,0.5-0.3,0.7-0.3c0.2,0,1.6,0.1,1.8,0.1c0.3,0,1.7,0.3,2.1,0.3c0.4,0,1.7,0.1,1.7,0.1
				s0.1,0,0,0.3c0,0.3,0.3,0.5,0.4,0.6C637.2,371.5,636.9,372.1,636.7,372.1z"/>
			<path class="st0" d="M644.4,393.1C644,393,644,393,644,393s-0.5-0.1-0.7-0.1c-0.2,0-1.1-0.3-1.2-0.5c-0.2-0.1-1.2-0.3-1.4-0.3
				c-0.2,0-0.6,0.1-0.8,0.1c-0.1,0.1-1.2-0.1-1.5-0.1c-0.3,0-0.9,0.2-1.1,0.3c-0.2,0.1-0.6,0.3-0.8,0.3c-0.2-0.1-1-0.3-1.2-0.2
				c-0.1,0.1,0,0.2-0.3,0.2c-0.2-0.1-0.4,0-0.6,0.1c-0.3,0-0.6,0-0.9,0.1c-0.2,0-0.3,0.2-0.8,0.2c-0.4,0-0.8-0.2-1-0.2
				c-0.1,0-0.5,0-0.4-0.5c0,0-0.1-0.6-0.1-0.9c0-0.4,0.1-0.9,0.2-1.2c0-0.2,0.3-0.7,0.5-0.8c0.2-0.1,0.5-0.1,0.9,0.2
				c0.5,0.3,1.1,0.5,1.3,0.5c0.2,0,1.1,0.3,1.3,0.3c0.2,0,0.8,0.2,1.5-0.4c0,0,0.9-0.7,1.2-0.7c0.2,0,1.6-0.5,1.9-1
				c0,0,0.3-0.3,0.5-0.3c0.2-0.1,0.3-0.4,0.2-0.6c-0.2-0.2-0.3-0.6-0.4-0.6c-0.1-0.1-0.8-0.2-0.8-0.2s0.2-0.3,0.4-0.5
				c0.2-0.2,0.3-0.6,0.2-0.7c0-0.1,0-0.3,0-0.3s-0.8,0.1-1.1,0.1c-0.3,0-0.9-0.1-1.1-0.2c-0.2-0.1-1.3-0.1-1.7-0.1
				c-0.3,0.1-0.6,0.2-0.9,0.3c-0.3,0-0.6-0.2-0.6-0.1c-0.1,0.1,0.1,0.3-0.1,0.3c-0.1,0-0.3-0.2-0.5-0.1c-0.2,0.2-1.1,0.9-1.7,0.5
				v-0.9l-0.1-0.1c0,0,0,0,0.1-0.1c0-0.2-0.1-0.3-0.1-0.5c0-0.2-0.1-0.5-0.2-0.5c-0.1,0,0-0.2-0.3-0.2c-0.3,0-0.5,0.2-0.6,0.2
				c-0.1,0-0.8,0.1-1,0.1c-0.2,0-0.4-0.3-0.5-0.1c-0.1,0.2-0.5,0.4-0.5,0.5c0,0.1-0.1,0.2-0.1,0.2s-0.1-0.5-0.2-0.5
				c-0.2,0.1-0.3,0.4-0.3,0.6c0.1,0.2-0.2,0.2-0.2,0.3c-0.1,0.1-0.3,0.6-0.3,0.6s-0.5,0.3-0.3,0.8c0,0-0.2,0.3,0,0.7
				c0.1,0.3-0.4,0.1-0.1,0.9c0.4,0.8,0.5,1.3,0.5,1.5c-0.1,0.2,0,1-0.2,1.1c-0.2,0.1-0.3,0.6-0.3,0.6s-0.8,0.3-1.1,1.1
				c0,0,0.1,0.5-0.2,0.6c-0.3,0-0.4,0.4-0.5,0.5c0,0.1-0.1,0.2,0,0.5c0,0-0.4,0.1-0.4,0.2c0,0.2,0,0.5-0.1,0.5
				c-0.1,0.1-0.2,0.4,0.1,0.5c0.2,0.2-0.1,0.5,0,0.6c0.2,0,0.2,0.2,0.3,0.4c0,0.2,0,0.4,0.1,0.7c0.1,0.3,0.3,0.4,0.5,0.5
				c0.2,0.1,0.8,0.2,0.9,0.2c0.2,0,1,0.1,1.4-0.1c0,0,0.4,0.1,0.5,0c0.1-0.1,0.1-0.3,0.3-0.2c0.2,0.1,0.5,0.2,0.6,0.2
				c0.1,0,0.7,0,0.8-0.1c0.1,0,0.7-0.1,0.7-0.1c0.1,0,0.1-0.1,0.3-0.1c0.3,0,1.4,0.2,1.4,0.2c0.1,0,0.1,0.2,0.3,0.2
				c0.1,0,0.3-0.1,0.4-0.1c0.1,0,0.5,0,0.5,0s0.4,0.2,0.6,0.2c0.2,0,0.6-0.1,0.6-0.1s0.4,0.3,0.6,0.3c0.2,0,0.4,0.1,0.7,0
				c0.2-0.1,0.8-0.2,1-0.2c0.2-0.1,0.6-0.1,0.7-0.3c0-0.2,0.2-0.4,0.4-0.4c0.2,0,0.6-0.4,0.6-0.4s0.3-0.1,0.5-0.1
				c0.2,0,0.4-0.1,0.5-0.3c0.1-0.2,0.2,0.1,0.5-0.2c0,0,0,0.1,0.2-0.1c0.2-0.2,0.6-0.6,0.8-0.6c0.1,0,0.5-0.1,0.5-0.4
				c0-0.3,0-0.6,0.2-0.6c0.2-0.1,0-0.2,0.3-0.3c0.3-0.1,1-0.6,1.1-0.7C644.4,393.4,644.7,393.2,644.4,393.1z"/>
		</g>
	</g>
</g>
</svg>
